<svg width="49" height="48" viewBox="0 0 49 48" fill="none" xmlns="http://www.w3.org/2000/svg">
<path d="M48.5 24C48.5 37.2548 37.7548 48 24.5 48C11.2452 48 0.5 37.2548 0.5 24C0.5 10.7452 11.2452 0 24.5 0C37.7548 0 48.5 10.7452 48.5 24ZM5.3 24C5.3 34.6039 13.8961 43.2 24.5 43.2C35.1039 43.2 43.7 34.6039 43.7 24C43.7 13.3961 35.1039 4.8 24.5 4.8C13.8961 4.8 5.3 13.3961 5.3 24Z" fill="#4979F5"/>
<path d="M24.4997 2.39998C24.4997 1.0745 25.5768 -0.0124484 26.8957 0.119881C29.8523 0.416541 32.7354 1.26049 35.3954 2.61583C38.7701 4.33529 41.6899 6.82902 43.9161 9.89313C46.1423 12.9572 47.6117 16.5047 48.2042 20.2456C48.7967 23.9864 48.4954 27.8143 47.325 31.4164C46.1546 35.0185 44.1484 38.2924 41.4702 40.9705C38.7921 43.6487 35.5181 45.6549 31.9161 46.8253C28.314 47.9957 24.4861 48.297 20.7452 47.7045C17.7966 47.2375 14.9681 46.2256 12.4017 44.7278C11.257 44.0596 11.0244 42.5471 11.8035 41.4748C12.5826 40.4024 14.0777 40.1796 15.2389 40.819C17.1796 41.8875 19.296 42.6151 21.4961 42.9636C24.4888 43.4376 27.5511 43.1966 30.4328 42.2603C33.3144 41.324 35.9336 39.7189 38.0761 37.5764C40.2186 35.4339 41.8236 32.8148 42.7599 29.9331C43.6963 27.0514 43.9373 23.9891 43.4633 20.9964C42.9893 18.0038 41.8137 15.1658 40.0328 12.7145C38.2518 10.2632 35.916 8.26823 33.2163 6.89266C31.2316 5.88139 29.0916 5.226 26.8934 4.94979C25.5783 4.78453 24.4997 3.72547 24.4997 2.39998Z" fill="#00118F"/>
<path d="M12.3976 44.7258C12.9271 45.035 13.4684 45.3237 14.0201 45.5915C12.7401 44.922 11.6481 43.492 12.498 42C13.348 40.508 14.9754 40.6908 15.6866 41.0582C15.5351 40.9799 15.3846 40.8996 15.2352 40.8173C14.0742 40.1779 12.579 40.4005 11.7998 41.4727C11.0205 42.5449 11.2529 44.0574 12.3976 44.7258Z" fill="white"/>
<path d="M28.0887 0.270239C27.6925 0.210312 27.2948 0.160319 26.896 0.120308C25.5771 -0.0120198 24.5 1.07492 24.5 2.40041C24.5 3.72589 25.5795 4.78501 26.8947 4.95032C25.5 4.5 25.2109 3 25.5 2C25.9699 0.374226 27.2835 0.162363 28.0887 0.270239Z" fill="white"/>
</svg>
